PathFileType	4	(X/Y/Z)	H:\MAC\Pilotos\MDrajagopal3\static1.trc																																																																																																																																																																																																																																								
DataRate	CameraRate	NumFrames	NumMarkers	Units	OrigDataRate	OrigDataStartFrame	OrigNumFrames																																																																																																																																																																																																																																				
150	150	4	78	mm	150	1	1500																																																																																																																																																																																																																																				
Frame#	Time	RACR			LACR			C7			CLAV			RASH			RPSH			LASH			LPSH			RUA1			RUA2			RUA3			RLEL			RMEL			RFAsuperior			RFAradius			RFAulna			LUA1			LUA2			LUA3			LLEL			LMEL			LFAsuperior			LFAradius			LFAulna			RASI			LASI			RPSI			LPSI			RTH1			RTH2			RTH3			RLFC			RMFC			RTB1			RTB2			RTB3			RLMAL			RMMAL			RCAL			RTOE			RMT5			LTH1			LTH2			LTH3			LLFC			LMFC			LTB1			LTB2			LTB3			LLMAL			LMMAL			LCAL			LTOE			LMT5			RSJC			LSJC			RHJC			LHJC			RKJC			LKJC			RAJC			LAJC			REJC			LEJC			Mid_ASIS			Mid_PSIS			RASHv			RPSHv			LPSHv			RLFCv			RMFCv			RLMALv			RMMALv			LLFCv			LMFCv			LLMALv			LMMALv			LASHv		
		X1	Y1	Z1	X2	Y2	Z2	X3	Y3	Z3	X4	Y4	Z4	X5	Y5	Z5	X6	Y6	Z6	X7	Y7	Z7	X8	Y8	Z8	X9	Y9	Z9	X10	Y10	Z10	X11	Y11	Z11	X12	Y12	Z12	X13	Y13	Z13	X14	Y14	Z14	X15	Y15	Z15	X16	Y16	Z16	X17	Y17	Z17	X18	Y18	Z18	X19	Y19	Z19	X20	Y20	Z20	X21	Y21	Z21	X22	Y22	Z22	X23	Y23	Z23	X24	Y24	Z24	X25	Y25	Z25	X26	Y26	Z26	X27	Y27	Z27	X28	Y28	Z28	X29	Y29	Z29	X30	Y30	Z30	X31	Y31	Z31	X32	Y32	Z32	X33	Y33	Z33	X34	Y34	Z34	X35	Y35	Z35	X36	Y36	Z36	X37	Y37	Z37	X38	Y38	Z38	X39	Y39	Z39	X40	Y40	Z40	X41	Y41	Z41	X42	Y42	Z42	X43	Y43	Z43	X44	Y44	Z44	X45	Y45	Z45	X46	Y46	Z46	X47	Y47	Z47	X48	Y48	Z48	X49	Y49	Z49	X50	Y50	Z50	X51	Y51	Z51	X52	Y52	Z52	X53	Y53	Z53	X54	Y54	Z54	X55	Y55	Z55	X56	Y56	Z56	X57	Y57	Z57	X58	Y58	Z58	X59	Y59	Z59	X60	Y60	Z60	X61	Y61	Z61	X62	Y62	Z62	X63	Y63	Z63	X64	Y64	Z64	X65	Y65	Z65	X66	Y66	Z66	X67	Y67	Z67	X68	Y68	Z68	X69	Y69	Z69	X70	Y70	Z70	X71	Y71	Z71	X72	Y72	Z72	X73	Y73	Z73	X74	Y74	Z74	X75	Y75	Z75	X76	Y76	Z76	X77	Y77	Z77	X78	Y78	Z78
																																																																																																																																																																																																																																											
1	0	705.59479	1393.76807	1383.14685	713.7804	1395.9895	1047.50989	658.25464	1414.29504	1205.5824	806.35168	1370.36047	1257.5061	775.77844	1366.0509	1402.71667	668.48401	1359.35498	1394.5448	786.98224	1378.57166	1040.28259	683.72559	1357.36218	1028.65173	708.68719	1275.93835	1458.23828	749.54431	1207.48914	1478.03186	676.00708	1165.88855	1452.40527	692.26178	1121.64514	1492.95618	750.02588	1092.94238	1432.31714	764.24371	1044.87244	1577.3291	784.78448	970.61633	1630.09338	747.76617	918.4978	1589.08862	712.95435	1298.20532	975.06891	754.20209	1213.49976	945.27985	693.87726	1170.83691	985.40814	722.50543	1135.99841	918.93292	754.34235	1093.83899	994.08893	782.55304	1030.06958	840.05414	828.06995	968.72015	813.63422	778.70721	919.28955	834.70966	830.6394	903.67773	1337.19971	834.52759	898.56067	1110.53137	656.20856	927.66669	1261.13464	653.82825	926.80768	1179.25037	735.54932	798.67438	1389.1897	690.90015	640.37366	1371.28149	757.35345	610.47827	1399.93127	751.81531	470.14233	1392.10339	757.80823	449.9725	1263.81433	784.78937	343.18344	1355.05762	703.17358	327.23691	1425.98267	738.56152	200.30496	1405.50586	684.94104	82.7331	1407.703	710.14166	86.93445	1319.26062	636.29346	36.18565	1372.25732	845.58563	36.88551	1377.83911	807.01434	33.36239	1425.073	750.50848	806.02222	1048.21204	702.15845	657.53839	1059.92688	752.81921	580.83154	1045.20337	756.10254	467.56293	1053.23206	741.43872	450.5452	1178.52759	782.68457	353.39563	1095.35474	691.61798	312.66101	1018.98627	746.35962	183.48436	1058.47937	692.75439	77.14396	1044.1615	712.16742	87.26577	1132.58716	643.61151	45.94695	1074.90662	844.95062	36.88696	1079.1344	817.55096	29.68477	1031.12634	722.13123	1362.703	1398.63074	735.35388	1367.96692	1034.46716	737.977	840.011	1321.123	742.201	839.775	1117.067	754.81177	460.0574	1327.95886	748.77063	459.05408	1115.87976	697.54132	84.83377	1363.48181	702.46094	82.20486	1088.37439	721.1438	1107.29382	1462.63672	738.42389	1114.9187	956.51093	832.5835	901.1192	1223.86548	655.01843	927.23718	1220.1925	813.6261	1312.92847	1442.25806	705.85437	1319.90613	1415.70508	747.44238	1398.77527	993.12683	723.96716	501.53	1414.52319	782.39935	460.15079	1298.21204	703.3996	67.2163	1447.42664	729.14429	62.26333	1359.58984	773.01038	515.21454	1012.18738	782.31427	485.01437	1141.48499	710.93445	60.32015	1030.88464	747.37762	73.42714	1114.31384	831.30157	1376.51208	940.19861
2	0.007	705.59747	1393.75085	1383.14941	713.81598	1396.00439	1047.5166	658.27765	1414.29602	1205.5907	806.37152	1370.34448	1257.50024	775.7749	1366.03113	1402.72742	668.49512	1359.33691	1394.55176	787.02307	1378.57483	1040.302	683.76929	1357.38257	1028.65735	708.68127	1275.91675	1458.23938	749.54095	1207.46497	1478.02197	676.00513	1165.87158	1452.3999	692.255	1121.62939	1492.95288	750.01355	1092.91675	1432.30872	764.22882	1044.84143	1577.32581	784.75543	970.59448	1630.09045	747.75012	918.47028	1589.08911	712.99481	1298.20764	975.07593	754.25439	1213.50061	945.30048	693.91235	1170.84021	985.42401	722.55475	1136.00098	918.9425	754.40247	1093.83936	994.10181	782.61963	1030.07312	840.07477	828.15112	968.72229	813.67651	778.79724	919.29065	834.73883	830.66107	903.66968	1337.19531	834.54895	898.55383	1110.53918	656.21979	927.66193	1261.13086	653.85449	926.81146	1179.2406	735.57062	798.66632	1389.18433	690.91388	640.37109	1371.2771	757.36621	610.48914	1399.9386	751.82983	470.13351	1392.08826	757.86804	449.95901	1263.82458	784.80585	343.17801	1355.0509	703.19147	327.23233	1425.98254	738.56537	200.29745	1405.50403	684.94482	82.73203	1407.70227	710.14569	86.92616	1319.26746	636.3042	36.1799	1372.255	845.5816	36.88089	1377.8429	807.02399	33.3578	1425.05774	750.53748	806.01703	1048.21228	702.1767	657.54132	1059.91394	752.8515	580.81848	1045.2019	756.11615	467.56613	1053.2373	741.45239	450.55045	1178.52698	782.68848	353.37936	1095.35608	691.64832	312.66833	1018.98798	746.40558	183.48343	1058.66138	692.77167	77.12419	1044.16968	712.16638	87.2704	1132.58667	643.60999	45.94404	1074.89954	844.95703	36.8718	1079.13525	817.53888	29.67739	1031.12085	722.13501	1362.68396	1398.63953	735.39618	1367.97876	1034.47974	737.99	840.006	1321.12	742.222	839.773	1117.063	754.84894	460.04626	1327.95642	748.7843	459.05829	1115.88208	697.54529	84.82909	1363.48486	702.46899	82.1973	1088.37817	721.13428	1107.27307	1462.63074	738.47858	1114.92017	956.52216	832.60504	901.11176	1223.86719	655.03711	927.23669	1220.18567	813.61749	1312.91125	1442.25171	705.84399	1319.88892	1415.71094	747.47382	1398.78027	993.13629	723.96497	501.52377	1414.52832	782.40936	460.13586	1298.22632	703.40808	67.21132	1447.41418	729.14691	62.26052	1359.57556	773.03235	515.20764	1012.19696	782.29657	485.00812	1141.49756	710.78827	60.3134	1031.01001	747.20514	73.44216	1114.44727	831.34637	1376.51819	940.2287
3	0.013	705.60168	1393.7406	1383.1637	713.84094	1396.01245	1047.52393	658.29456	1414.29553	1205.58923	806.3822	1370.3418	1257.52209	775.79327	1366.00745	1402.72595	668.49133	1359.32507	1394.55115	787.05322	1378.57898	1040.31543	683.80408	1357.38074	1028.65674	708.67633	1275.90271	1458.24023	749.53882	1207.44653	1478.0249	676.00189	1165.84949	1452.40088	692.23865	1121.60901	1492.93225	750.00122	1092.89856	1432.2959	764.20935	1044.81555	1577.31311	784.72729	970.56372	1630.08118	747.72852	918.44653	1589.08093	713.034	1298.21863	975.08789	754.30225	1213.50232	945.32074	693.94843	1170.84363	985.42865	722.59979	1136.00806	918.96533	754.43091	1093.85779	994.13025	782.68164	1030.0791	840.09454	828.22296	968.72266	813.70374	778.86945	919.28632	834.76849	830.67804	903.66998	1337.198	834.58344	898.55493	1110.53882	656.23431	927.65942	1261.12573	653.87451	926.80798	1179.23132	735.59204	798.67017	1389.17944	690.9353	640.37488	1371.27002	757.39459	610.48169	1399.92432	751.85309	470.12933	1392.08936	757.88898	449.94608	1263.82593	784.81427	343.1731	1355.05469	703.20367	327.23114	1425.98779	738.58002	200.29958	1405.50452	684.94067	82.73486	1407.70203	710.14142	86.92794	1319.2616	636.29718	36.19135	1372.25586	845.58734	36.88023	1377.83923	807.01862	33.35501	1425.05981	750.55652	806.02362	1048.20264	702.20435	657.53168	1059.89819	752.86621	580.82202	1045.19678	756.13354	467.56894	1053.23682	741.47528	450.55435	1178.51758	782.69904	353.38013	1095.35925	691.63489	312.78973	1018.99567	746.37634	183.47575	1058.48657	692.76758	77.14196	1044.17822	712.14923	87.28275	1132.58411	643.61353	45.95129	1074.88879	844.96649	36.88177	1079.13635	817.54388	29.67824	1031.13489	722.14233	1362.66626	1398.63855	735.42865	1367.97986	1034.48608	738.008	840.004	1321.116	742.252	839.772	1117.059	754.87103	460.03769	1327.95764	748.80438	459.06165	1115.8772	697.54102	84.8314	1363.48181	702.45837	82.21235	1088.3811	721.11993	1107.25378	1462.61401	738.51532	1114.93298	956.54779	832.63074	901.11249	1223.86841	655.05444	927.2337	1220.17859	813.61163	1312.90063	1442.25403	705.8396	1319.87488	1415.71179	747.51172	1398.79016	993.15686	723.9931	501.52631	1414.51135	782.42511	460.14441	1298.20105	703.41248	67.21015	1447.42554	729.14819	62.25713	1359.58618	773.08203	515.21674	1012.18628	782.33496	485.01654	1141.48755	710.70313	60.40823	1030.69263	747.15814	73.42857	1114.13025	831.39728	1376.52502	940.27118
4	0.02	705.60675	1393.729	1383.16211	713.88751	1396.01123	1047.53442	658.30731	1414.29492	1205.59729	806.39899	1370.33179	1257.53699	775.78143	1365.99146	1402.73376	668.49298	1359.31506	1394.56384	787.08179	1378.5835	1040.33411	683.83826	1357.38977	1028.6676	708.68054	1275.88269	1458.2406	749.53845	1207.42639	1478.02014	675.99622	1165.82996	1452.3927	692.2276	1121.58643	1492.92712	750.0116	1092.87207	1432.28162	764.20068	1044.79773	1577.30371	784.70209	970.53052	1630.06604	747.7005	918.41949	1589.06445	713.06854	1298.22607	975.09412	754.34332	1213.505	945.33075	693.98157	1170.85254	985.43591	722.65161	1136.0083	918.98175	754.47577	1093.85364	994.15643	782.74182	1030.08118	840.11865	828.2876	968.73071	813.74152	778.93347	919.28052	834.79382	830.69678	903.66882	1337.20203	834.60901	898.54669	1110.53821	656.25507	927.65118	1261.11914	653.89941	926.79999	1179.22644	735.61554	798.66803	1389.17529	690.95172	640.36737	1371.2677	757.41229	610.487	1399.93396	751.8656	470.14066	1392.0979	757.91565	449.95093	1263.82593	784.82629	343.16373	1355.05261	703.21735	327.23172	1425.98682	738.58972	200.29037	1405.49707	684.94781	82.73769	1407.70715	710.15295	86.92419	1319.27234	636.29871	36.18303	1372.25464	845.58734	36.87638	1377.84314	807.02148	33.36002	1425.06653	750.58246	806.0174	1048.19788	702.22565	657.53192	1059.89551	752.88916	580.81836	1045.1875	756.14624	467.56015	1053.23108	741.48682	450.54468	1178.52136	782.70807	353.38437	1095.36084	691.63892	312.79068	1018.98816	746.41888	183.47409	1058.66199	692.76385	77.12711	1044.15833	712.14923	87.27734	1132.5824	643.61584	45.95142	1074.92725	844.95642	36.8854	1079.14771	817.54529	29.69033	1031.13831	722.13721	1362.65332	1398.6488	735.46002	1367.98669	1034.50085	738.028	840	1321.116	742.28	839.763	1117.059	754.89063	460.04578	1327.96191	748.81653	459.0524	1115.87622	697.55035	84.83094	1363.48975	702.45654	82.20222	1088.37036	721.11957	1107.22925	1462.60437	738.56366	1114.93103	956.56909	832.65289	901.10773	1223.87012	655.07727	927.22559	1220.17285	813.6189	1312.87317	1442.2572	705.84558	1319.85754	1415.71484	747.54309	1398.79822	993.16534	723.99969	501.526	1414.52063	782.44373	460.13556	1298.21948	703.39844	67.2108	1447.43042	729.13141	62.25358	1359.59058	773.09143	515.20984	1012.17688	782.35333	485.0079	1141.47705	710.58887	60.41008	1030.84265	747.02612	73.46095	1114.2832	831.43451	1376.53345	940.28876
